<svg width="33" height="36" viewBox="0 0 33 36" fill="none" xmlns="http://www.w3.org/2000/svg">
<path d="M17.0274 1.24256C16.914 1.12886 16.7792 1.03864 16.6309 0.977088C16.4826 0.915534 16.3235 0.88385 16.1629 0.88385C16.0023 0.88385 15.8433 0.915534 15.695 0.977088C15.5466 1.03864 15.4119 1.12886 15.2985 1.24256L0.646571 15.8945C0.533258 16.0081 0.443447 16.1429 0.382271 16.2912C0.321095 16.4395 0.289754 16.5985 0.290041 16.7589V33.8528C0.290041 34.1766 0.418681 34.4872 0.647661 34.7162C0.876642 34.9452 1.18721 35.0738 1.51103 35.0738H12.5C12.8238 35.0738 13.1344 34.9452 13.3633 34.7162C13.5923 34.4872 13.721 34.1766 13.721 33.8528V24.0849H18.6049V33.8528C18.6049 34.1766 18.7336 34.4872 18.9625 34.7162C19.1915 34.9452 19.5021 35.0738 19.8259 35.0738H30.8148C31.1387 35.0738 31.4492 34.9452 31.6782 34.7162C31.9072 34.4872 32.0358 34.1766 32.0358 33.8528V16.7589C32.0361 16.5985 32.0048 16.4395 31.9436 16.2912C31.8824 16.1429 31.7926 16.0081 31.6793 15.8945L28.3729 12.5905V4.54901C28.3729 4.22518 28.2442 3.91462 28.0152 3.68564C27.7863 3.45666 27.4757 3.32802 27.1519 3.32802H24.7099C24.3861 3.32802 24.0755 3.45666 23.8465 3.68564C23.6175 3.91462 23.4889 4.22518 23.4889 4.54901V7.70649L17.0274 1.24256ZM2.73203 32.6318V17.2644L16.1629 3.83351L29.5939 17.2644V32.6318H21.0469V22.8639C21.0469 22.5401 20.9183 22.2295 20.6893 22.0005C20.4603 21.7715 20.1497 21.6429 19.8259 21.6429H12.5C12.1761 21.6429 11.8656 21.7715 11.6366 22.0005C11.4076 22.2295 11.279 22.5401 11.279 22.8639V32.6318H2.73203Z" fill="#1DAEFF"/>
</svg>
