<svg width="32" height="32" viewBox="0 0 32 32" fill="none" xmlns="http://www.w3.org/2000/svg">
<rect width="32" height="32" rx="8" fill="#2C2B2B"/>
<g clip-path="url(#clip0_46_459)">
<path fill-rule="evenodd" clip-rule="evenodd" d="M12.9765 8.7105C13.7585 8.6745 14.0078 8.6665 15.9998 8.6665C17.9918 8.6665 18.2412 8.67517 19.0225 8.7105C19.8038 8.74584 20.3372 8.8705 20.8038 9.05117C21.2925 9.23584 21.7358 9.5245 22.1025 9.89784C22.4758 10.2638 22.7638 10.7065 22.9478 11.1958C23.1292 11.6625 23.2532 12.1958 23.2892 12.9758C23.3252 13.7592 23.3332 14.0085 23.3332 15.9998C23.3332 17.9918 23.3245 18.2412 23.2892 19.0232C23.2538 19.8032 23.1292 20.3365 22.9478 20.8032C22.7638 21.2926 22.4754 21.736 22.1025 22.1025C21.7358 22.4758 21.2925 22.7638 20.8038 22.9478C20.3372 23.1292 19.8038 23.2532 19.0238 23.2892C18.2412 23.3252 17.9918 23.3332 15.9998 23.3332C14.0078 23.3332 13.7585 23.3245 12.9765 23.2892C12.1965 23.2538 11.6632 23.1292 11.1965 22.9478C10.7071 22.7638 10.2637 22.4753 9.89717 22.1025C9.52409 21.7363 9.23538 21.2931 9.05117 20.8038C8.8705 20.3372 8.7465 19.8038 8.7105 19.0238C8.6745 18.2405 8.6665 17.9912 8.6665 15.9998C8.6665 14.0078 8.67517 13.7585 8.7105 12.9772C8.74584 12.1958 8.8705 11.6625 9.05117 11.1958C9.23565 10.7066 9.52458 10.2634 9.89784 9.89717C10.2639 9.52417 10.7068 9.23547 11.1958 9.05117C11.6625 8.8705 12.1958 8.7465 12.9758 8.7105H12.9765ZM18.9632 10.0305C18.1898 9.99517 17.9578 9.98784 15.9998 9.98784C14.0418 9.98784 13.8098 9.99517 13.0365 10.0305C12.3212 10.0632 11.9332 10.1825 11.6745 10.2832C11.3325 10.4165 11.0878 10.5745 10.8312 10.8312C10.5879 11.0679 10.4006 11.356 10.2832 11.6745C10.1825 11.9332 10.0632 12.3212 10.0305 13.0365C9.99517 13.8098 9.98784 14.0418 9.98784 15.9998C9.98784 17.9578 9.99517 18.1898 10.0305 18.9632C10.0632 19.6785 10.1825 20.0665 10.2832 20.3252C10.4005 20.6432 10.5878 20.9318 10.8312 21.1685C11.0678 21.4118 11.3565 21.5992 11.6745 21.7165C11.9332 21.8172 12.3212 21.9365 13.0365 21.9692C13.8098 22.0045 14.0412 22.0118 15.9998 22.0118C17.9585 22.0118 18.1898 22.0045 18.9632 21.9692C19.6785 21.9365 20.0665 21.8172 20.3252 21.7165C20.6672 21.5832 20.9118 21.4252 21.1685 21.1685C21.4118 20.9318 21.5992 20.6432 21.7165 20.3252C21.8172 20.0665 21.9365 19.6785 21.9692 18.9632C22.0045 18.1898 22.0118 17.9578 22.0118 15.9998C22.0118 14.0418 22.0045 13.8098 21.9692 13.0365C21.9365 12.3212 21.8172 11.9332 21.7165 11.6745C21.5832 11.3325 21.4252 11.0878 21.1685 10.8312C20.9318 10.5879 20.6436 10.4006 20.3252 10.2832C20.0665 10.1825 19.6785 10.0632 18.9632 10.0305ZM15.0632 18.2605C15.5863 18.4783 16.1688 18.5076 16.7111 18.3437C17.2535 18.1797 17.7221 17.8324 18.0369 17.3613C18.3517 16.8902 18.4932 16.3244 18.4372 15.7606C18.3812 15.1967 18.1312 14.6698 17.7298 14.2698C17.474 14.0142 17.1646 13.8184 16.8241 13.6966C16.4835 13.5748 16.1201 13.5301 15.7602 13.5656C15.4002 13.6011 15.0526 13.716 14.7424 13.9019C14.4321 14.0879 14.167 14.3403 13.966 14.6411C13.7651 14.9418 13.6333 15.2834 13.5802 15.6411C13.5271 15.9989 13.5539 16.364 13.6589 16.7102C13.7638 17.0563 13.9442 17.3749 14.187 17.643C14.4298 17.9111 14.7291 18.122 15.0632 18.2605ZM13.3345 13.3345C13.6845 12.9845 14.1001 12.7068 14.5574 12.5174C15.0147 12.328 15.5048 12.2305 15.9998 12.2305C16.4948 12.2305 16.985 12.328 17.4423 12.5174C17.8996 12.7068 18.3152 12.9845 18.6652 13.3345C19.0152 13.6845 19.2928 14.1001 19.4823 14.5574C19.6717 15.0147 19.7692 15.5048 19.7692 15.9998C19.7692 16.4948 19.6717 16.985 19.4823 17.4423C19.2928 17.8996 19.0152 18.3152 18.6652 18.6652C17.9583 19.3721 16.9995 19.7692 15.9998 19.7692C15.0001 19.7692 14.0414 19.3721 13.3345 18.6652C12.6276 17.9583 12.2305 16.9995 12.2305 15.9998C12.2305 15.0001 12.6276 14.0414 13.3345 13.3345ZM20.6052 12.7918C20.6919 12.71 20.7613 12.6116 20.8094 12.5025C20.8574 12.3933 20.883 12.2757 20.8848 12.1565C20.8865 12.0372 20.8643 11.9189 20.8195 11.8084C20.7747 11.6979 20.7081 11.5975 20.6238 11.5132C20.5395 11.4289 20.4391 11.3623 20.3286 11.3175C20.2181 11.2727 20.0998 11.2505 19.9806 11.2522C19.8613 11.254 19.7437 11.2796 19.6345 11.3276C19.5254 11.3757 19.427 11.4451 19.3452 11.5318C19.186 11.7005 19.0989 11.9246 19.1023 12.1565C19.1057 12.3883 19.1993 12.6098 19.3633 12.7737C19.5273 12.9377 19.7487 13.0313 19.9806 13.0347C20.2124 13.0381 20.4365 12.951 20.6052 12.7918Z" fill="#FFFBFB" fill-opacity="0.65"/>
</g>
<defs>
<clipPath id="clip0_46_459">
<rect width="16" height="16" fill="white" transform="translate(8 8)"/>
</clipPath>
</defs>
</svg>
