<svg width="32" height="32" viewBox="0 0 32 32" fill="none" xmlns="http://www.w3.org/2000/svg">
<rect width="32" height="32" rx="8" fill="#2C2B2B"/>
<g clip-path="url(#clip0_46_467)">
<path d="M18.6938 10.4794C19.52 10.4794 20.266 10.8175 20.7915 11.3602C21.4452 11.2337 22.0615 11.0032 22.6152 10.684C22.401 11.3345 21.9452 11.8802 21.3525 12.2255C21.9325 12.1572 22.4878 12.0082 23.003 11.7855C22.6168 12.344 22.1305 12.8357 21.569 13.2287C21.5743 13.348 21.5773 13.4685 21.5773 13.5885C21.5773 17.2717 18.6865 21.52 13.4005 21.52C11.778 21.52 10.2668 21.057 8.99578 20.2665C9.22316 20.2929 9.45188 20.3061 9.68078 20.306C11.027 20.306 12.2668 19.8607 13.2505 19.1122C11.9923 19.0907 10.9303 18.284 10.566 17.1772C10.7444 17.2106 10.9255 17.2275 11.107 17.2275C11.3683 17.2275 11.6228 17.1937 11.8633 17.1297C10.5488 16.8745 9.55802 15.7477 9.55802 14.3964V14.3607C9.94577 14.5697 10.3885 14.6952 10.8603 14.7097C10.0888 14.2092 9.58152 13.3572 9.58152 12.3899C9.58152 11.8787 9.72353 11.3997 9.97078 10.9894C11.3878 12.6749 13.5053 13.7849 15.894 13.9017C15.8448 13.6982 15.8193 13.4832 15.8193 13.2669C15.8193 11.7272 17.106 10.4794 18.6938 10.4794ZM23.003 11.786H23.0055H23.003ZM18.6937 9.47949C16.7302 9.47949 15.1035 10.914 14.853 12.7675C13.2465 12.4448 11.7855 11.5943 10.7358 10.3465C10.6419 10.2349 10.5248 10.1451 10.3926 10.0835C10.2604 10.022 10.1163 9.99004 9.97049 9.99002C9.9443 9.99003 9.91812 9.99103 9.892 9.99302C9.73349 10.0057 9.58028 10.056 9.44504 10.1396C9.3098 10.2232 9.19641 10.3379 9.11425 10.474C8.76562 11.0525 8.58142 11.7151 8.58149 12.3905C8.58149 12.8413 8.66247 13.2803 8.81599 13.6908C8.65249 13.8725 8.55824 14.1103 8.55824 14.3613V14.397C8.55824 15.3765 8.94549 16.2855 9.58849 16.9668C9.55149 17.1383 9.55974 17.3178 9.61624 17.4898C9.838 18.1645 10.2418 18.746 10.7653 19.189C10.4137 19.2673 10.051 19.3068 9.68074 19.3068C9.48499 19.3068 9.29449 19.296 9.11424 19.274C9.07424 19.269 9.03474 19.2672 8.99499 19.2672C8.57499 19.2672 8.19374 19.532 8.05224 19.9357C7.89699 20.3782 8.06925 20.8687 8.46724 21.1165C9.94425 22.0355 11.6502 22.5207 13.4002 22.5207C19.0882 22.5207 22.5097 18.068 22.5762 13.7185C23.043 13.3323 23.4553 12.8848 23.802 12.388C23.9336 12.2151 24.0048 12.0038 24.0045 11.7865C24.0045 11.4462 23.8343 11.1455 23.575 10.9647C23.6873 10.58 23.5592 10.1635 23.2467 9.90898C23.0642 9.76048 22.8405 9.68498 22.6155 9.68498C22.4401 9.68481 22.2678 9.73095 22.116 9.81873C21.7855 10.0092 21.432 10.16 21.0597 10.2685C20.3862 9.76176 19.5512 9.47951 18.6937 9.47949Z" fill="#FFFBFB" fill-opacity="0.65"/>
</g>
<defs>
<clipPath id="clip0_46_467">
<rect width="16" height="16" fill="white" transform="translate(8 8)"/>
</clipPath>
</defs>
</svg>
