<svg width="33" height="32" viewBox="0 0 33 32" fill="none" xmlns="http://www.w3.org/2000/svg">
<rect x="0.5" width="32" height="32" rx="8" fill="#2C2B2B"/>
<path d="M24 15.9562C24 15.9218 24 15.8827 23.9984 15.8374C23.9969 15.7108 23.9938 15.5687 23.9906 15.4171C23.9781 14.9812 23.9563 14.5468 23.9219 14.1374C23.875 13.5733 23.8062 13.103 23.7125 12.7499C23.6136 12.3814 23.4196 12.0453 23.1501 11.7752C22.8806 11.5051 22.5449 11.3105 22.1766 11.2108C21.7344 11.0921 20.8687 11.0187 19.65 10.9733C19.0703 10.9515 18.45 10.9374 17.8297 10.9296C17.6125 10.9265 17.4109 10.9249 17.2297 10.9233H16.7703C16.5891 10.9249 16.3875 10.9265 16.1703 10.9296C15.55 10.9374 14.9297 10.9515 14.35 10.9733C13.1312 11.0202 12.2641 11.0937 11.8234 11.2108C11.455 11.3103 11.1192 11.5048 10.8496 11.7749C10.58 12.045 10.3862 12.3813 10.2875 12.7499C10.1922 13.103 10.125 13.5733 10.0781 14.1374C10.0437 14.5468 10.0219 14.9812 10.0094 15.4171C10.0047 15.5687 10.0031 15.7108 10.0016 15.8374C10.0016 15.8827 10 15.9218 10 15.9562V16.0437C10 16.078 10 16.1171 10.0016 16.1624C10.0031 16.289 10.0062 16.4312 10.0094 16.5827C10.0219 17.0187 10.0437 17.453 10.0781 17.8624C10.125 18.4265 10.1938 18.8968 10.2875 19.2499C10.4875 19.9983 11.075 20.589 11.8234 20.789C12.2641 20.9077 13.1312 20.9812 14.35 21.0265C14.9297 21.0483 15.55 21.0624 16.1703 21.0702C16.3875 21.0733 16.5891 21.0749 16.7703 21.0765H17.2297C17.4109 21.0749 17.6125 21.0733 17.8297 21.0702C18.45 21.0624 19.0703 21.0483 19.65 21.0265C20.8687 20.9796 21.7359 20.9062 22.1766 20.789C22.925 20.589 23.5125 19.9999 23.7125 19.2499C23.8078 18.8968 23.875 18.4265 23.9219 17.8624C23.9563 17.453 23.9781 17.0187 23.9906 16.5827C23.9953 16.4312 23.9969 16.289 23.9984 16.1624C23.9984 16.1171 24 16.078 24 16.0437V15.9562ZM22.875 16.0374C22.875 16.0702 22.875 16.1062 22.8734 16.1483C22.8719 16.2702 22.8688 16.4046 22.8656 16.5499C22.8547 16.9655 22.8328 17.3812 22.8 17.7671C22.7578 18.2702 22.6984 18.6827 22.625 18.9593C22.5281 19.3202 22.2437 19.6062 21.8844 19.7015C21.5562 19.789 20.7297 19.8593 19.6062 19.9015C19.0375 19.9233 18.425 19.9374 17.8141 19.9452C17.6 19.9483 17.4016 19.9499 17.2234 19.9499H16.7766L16.1859 19.9452C15.575 19.9374 14.9641 19.9233 14.3938 19.9015C13.2703 19.8577 12.4422 19.789 12.1156 19.7015C11.7562 19.6046 11.4719 19.3202 11.375 18.9593C11.3016 18.6827 11.2422 18.2702 11.2 17.7671C11.1672 17.3812 11.1469 16.9655 11.1344 16.5499C11.1297 16.4046 11.1281 16.2687 11.1266 16.1483C11.1266 16.1062 11.125 16.0687 11.125 16.0374V15.9624C11.125 15.9296 11.125 15.8937 11.1266 15.8515C11.1281 15.7296 11.1313 15.5952 11.1344 15.4499C11.1453 15.0343 11.1672 14.6187 11.2 14.2327C11.2422 13.7296 11.3016 13.3171 11.375 13.0405C11.4719 12.6796 11.7562 12.3937 12.1156 12.2983C12.4437 12.2108 13.2703 12.1405 14.3938 12.0983C14.9625 12.0765 15.575 12.0624 16.1859 12.0546C16.4 12.0515 16.5984 12.0499 16.7766 12.0499H17.2234L17.8141 12.0546C18.425 12.0624 19.0359 12.0765 19.6062 12.0983C20.7297 12.1421 21.5578 12.2108 21.8844 12.2983C22.2437 12.3952 22.5281 12.6796 22.625 13.0405C22.6984 13.3171 22.7578 13.7296 22.8 14.2327C22.8328 14.6187 22.8531 15.0343 22.8656 15.4499C22.8703 15.5952 22.8719 15.7312 22.8734 15.8515C22.8734 15.8937 22.875 15.9312 22.875 15.9624V16.0374ZM15.6094 18.0937L19.2344 15.9843L15.6094 13.9062V18.0937Z" fill="#FFFBFB" fill-opacity="0.65"/>
</svg>
